<svg version="1.0" xmlns="http://www.w3.org/2000/svg"
 width="344.000000pt" height="228.000000pt" viewBox="0 0 344.000000 228.000000"
 preserveAspectRatio="xMidYMid meet">
    <g transform="translate(0.000000,228.000000) scale(0.100000,-0.100000)"
    fill="#000000" stroke="none">
        <path d="M874 2266 c-48 -21 -74 -61 -74 -115 0 -26 7 -56 16 -69 37 -54 6
        -52 904 -52 912 0 873 -3 905 60 35 69 8 147 -61 176 -49 20 -1644 20 -1690 0z"/>
        <path d="M434 1226 c-30 -30 -34 -40 -34 -86 0 -46 4 -56 34 -86 l34 -34 1252
        0 1252 0 34 34 c30 30 34 40 34 86 0 46 -4 56 -34 86 l-34 34 -1252 0 -1252 0
        -34 -34z"/>
        <path d="M58 234 c-58 -31 -77 -127 -36 -179 46 -58 -52 -55 1698 -55 1750 0
        1652 -3 1698 55 27 34 30 109 6 143 -38 55 65 52 -1706 52 -1425 -1 -1636 -3
        -1660 -16z"/>
    </g>
</svg>
