<?xml version="1.0" standalone="no"?>
<!DOCTYPE svg PUBLIC "-//W3C//DTD SVG 20010904//EN"
 "http://www.w3.org/TR/2001/REC-SVG-20010904/DTD/svg10.dtd">
<svg version="1.0" xmlns="http://www.w3.org/2000/svg"
 width="344.000000pt" height="228.000000pt" viewBox="0 0 344.000000 228.000000"
 preserveAspectRatio="xMidYMid meet">
<metadata>
Created by potrace 1.16, written by Peter Selinger 2001-2019
</metadata>
<g transform="translate(0.000000,228.000000) scale(0.100000,-0.100000)"
fill="#000000" stroke="none">
<path d="M74 2266 c-48 -21 -74 -61 -74 -115 0 -26 7 -56 16 -69 38 -55 -64
-52 1704 -52 1792 0 1672 -4 1705 60 35 69 8 147 -61 176 -49 20 -3243 20
-3290 0z"/>
<path d="M434 1226 c-30 -30 -34 -40 -34 -86 0 -46 4 -56 34 -86 l34 -34 1252
0 1252 0 34 34 c30 30 34 40 34 86 0 46 -4 56 -34 86 l-34 34 -1252 0 -1252 0
-34 -34z"/>
<path d="M858 234 c-58 -31 -77 -127 -36 -179 44 -57 18 -55 898 -55 880 0
854 -2 898 55 27 34 30 109 6 143 -37 54 -6 52 -906 52 -717 -1 -837 -3 -860
-16z"/>
</g>
</svg>
